<svg id="Layer_1" data-name="Layer 1" xmlns="http://www.w3.org/2000/svg" viewBox="0 0 461.94 457.95"><defs><style>.cls-1{fill:#ae2325;}.cls-2{fill:#fcfbfa;}</style></defs><path class="cls-1" d="M406.6,23c12.34,9.27,30.37,7.81,41.58,22.61-44.37,22.69-87,47.77-125.14,79.69-23.51,19.68-45.71,40.59-64.55,64.73-7.51,9.63-14.36,13.09-27.05,7.41C167,168.63,98.19,159.13,28.26,155.72V100.81C44.18,62.53,70.36,35,111.31,23Z" transform="translate(-27.99 -22.76)"/><path class="cls-1" d="M28.26,228.92c49.74,3.76,99.35,8.28,146.85,25,25.35,8.92,27.49,15.58,9.25,34-45,45.42-95.33,83.16-156.1,105.71Z" transform="translate(-27.99 -22.76)"/><path class="cls-2" d="M111.31,23c-40.95,12-67.13,39.5-83,77.78,0-22.87.47-45.77-.25-68.62-.25-8,1.45-9.64,9.49-9.41C62.08,23.47,86.7,23,111.31,23Z" transform="translate(-27.99 -22.76)"/><path class="cls-1" d="M68.46,459.19c18.51-10.28,35.3-19.11,51.61-28.74,52.45-31,99.64-68.22,138.35-115.41,6.94-8.46,12.37-15.85,26.4-9.54,59.33,26.69,122.56,37.87,187.15,41,16,.76,18.06,6.51,17.95,20.12-.58,72.27-41.08,113.47-114.2,113.88-78.31.44-156.62.21-234.94,0C115.88,480.43,92,476,68.46,459.19Z" transform="translate(-27.99 -22.76)"/><path class="cls-1" d="M489.64,194.33c0,22.06-.29,44.13.14,66.19.18,9.2-1.75,14.28-12.6,13.34-47.36-4.11-94.5-9.15-139.38-26.11-19.35-7.31-21.15-13.95-6.93-29.23,41-44.08,90.14-77.22,143.92-104.15,12.14-6.09,14.63-1.85,14.54,9.3-.2,23.55-.06,47.1-.06,70.65Z" transform="translate(-27.99 -22.76)"/></svg>