<svg id="Layer_1" data-name="Layer 1" xmlns="http://www.w3.org/2000/svg" viewBox="0 0 506.9 506.9"><defs><style>.cls-1{fill:#4c4b4c;}</style></defs><path class="cls-1" d="M255.69,2.43C115.57,2.43,2.24,116,2.24,255.88,2.24,396,115.83,509.33,255.69,509.33c140.12,0,253.45-113.59,253.45-253.45S395.55,2.43,255.69,2.43ZM240,338.56c-19.06,17.51-46.88,28.33-72.64,28.33-69.28,0-110.75-55.38-110.75-108.7,0-53.57,41.47-108.95,110.75-108.95,26.28,0,54.09,10.31,72.12,27l6.44,5.92-28.07,30.91-6.7-5.92c-12.36-11.34-28.07-17.78-43.79-17.78-37.34,0-67.48,30.65-67.48,68.52,0,42.24,35,68.51,67.48,68.51,17.52,0,32.46-5.92,45.34-18.29l6.43-6.18,27,30.91ZM344,362.77c-69.29,0-110.76-55.38-110.76-108.7S274.75,145.38,344,145.38s110.75,55.38,110.75,108.69S413.32,362.77,344,362.77Z" transform="translate(-2.24 -2.43)"/><path class="cls-1" d="M344,185.56c-33.23,0-67.49,25.5-67.49,68.51s34.26,68.52,67.49,68.52,67.48-25.5,67.48-68.52S377.26,185.56,344,185.56Z" transform="translate(-2.24 -2.43)"/></svg>