<?xml version="1.0" encoding="utf-8"?>
<!-- Generator: Adobe Illustrator 25.4.1, SVG Export Plug-In . SVG Version: 6.00 Build 0)  -->
<svg version="1.1" id="Layer_1" xmlns="http://www.w3.org/2000/svg" xmlns:xlink="http://www.w3.org/1999/xlink" x="0px" y="0px"
	 viewBox="0 0 512 512" style="enable-background:new 0 0 512 512;" xml:space="preserve">
<style type="text/css">
	.st0{fill:#004482;}
	.st1{fill:#659AD2;}
	.st2{fill:none;stroke:#FFFFFF;stroke-width:57;}
	.st3{fill:#00599C;}
	.st4{stroke:#FFFFFF;stroke-width:13;}
</style>
<path class="st0" d="M275.2,507.3L462.9,399c5.5-3.1,10.4-8.5,13.8-14.6L255.5,256.6L34.2,384.4c3.6,6.1,8.5,11.6,13.8,14.6
	l187.9,108.3C246.7,513.6,264.4,513.6,275.2,507.3z"/>
<path class="st1" d="M476.8,128.8c-3.6-6.1-8.5-11.6-13.8-14.6L275.2,5.7c-10.8-6.3-28.5-6.3-39.4,0L48.2,114.1
	c-10.8,6.3-19.7,21.6-19.7,34.1v216.7c0,6.3,2.3,13.2,5.7,19.4l221.3-127.7L476.8,128.8z"/>
<circle class="st2" cx="256.2" cy="255.8" r="114.4"/>
<path class="st3" d="M476.8,384.4c3.6-6.1,5.7-13.2,5.7-19.4V148.3c0-6.3-2.3-13.3-5.7-19.6L255.5,256.6L476.8,384.4z"/>
<path class="st4" d="M381.9,230.6v51.9 M356,257.2h51.9 M444.4,230.6v51.9 M418.5,257.2h51.9"/>
</svg>
