<svg id="Layer_1" data-name="Layer 1" xmlns="http://www.w3.org/2000/svg" viewBox="0 0 503.51 505.6"><defs><style>.cls-1{fill:#009374;}</style></defs><path id="path4341" class="cls-1" d="M4.75,3.24v141c11-.71,22-2.26,33.43-3.13,122.55-9.41,289.65-30.67,470.08-108.65V3.24ZM508.26,44C330.72,123.59,153.38,157.35,4.75,169.34v58.5c147.33-26,327.3-71.91,503.51-155.65Zm0,47c-172.78,85.79-352,139-503.51,172.37V362.6C138.17,308.24,324.45,224.37,508.26,115Zm0,61.64c-183.39,120-369.63,216.24-503.51,280v76.26c119.84-61.76,295.13-161.42,503.51-307.13Zm0,60.59C346.18,334.73,181,435.89,51.76,508.85H120.7C211.29,455.11,321.44,385.12,431,303.05c25.57-19.13,50.94-38.1,77.3-58.5Zm0,50.14C393.6,360,280.87,443,185.47,508.85H508.26Z" transform="translate(-4.75 -3.24)"/></svg>