<svg id="Layer_1" data-name="Layer 1" xmlns="http://www.w3.org/2000/svg" viewBox="0 0 505.63 479.56"><defs><style>.cls-1{fill:#8d191c;}</style></defs><path class="cls-1" d="M474.54,18.36C495.75,38,487,64.8,473.8,79.35c-46.48,47.06-92.65,94.44-139.67,141-11.59,11.46-11.05,22.21-5.83,35.65C344.67,298.08,361.68,340,376,382.84c8.29,24.83,22.56,33.25,48.32,33.07q43.57-.33,87.16-.3v73.71l-127.26.06c-37,2.77-56-18.55-67.78-49.7-1.91-5.06-1.78-11.24-7.51-14.36-19.29-61.38-41.73-121.58-67-185.82-17.67,28.64-25.35,55.58-36.53,80.94-14,31.67-20.7,66.86-45.72,93.19-5.4,1.66-10.69,3.83-16.2,4.9-32.59,6.31-50.43-12.84-42.6-45.29,1.31-5.41,1.66-11,2.46-16.56,17-24,24.89-52.15,36.11-78.68,19.77-46.73,38.5-93.95,55.62-141.69,9.11-25.41-2.18-41.76-28.17-47.74C138.48,82,101.81,107.35,89.45,142c-10.73,30.13-2.11,51.23,29.17,66.64,13.93,6.86,24.63,15,23.7,31.44-.89,15.77-11.59,24.49-25.2,31.23C83.48,288,59.75,267.75,35,250.67c-17.48-35.3-39.22-69.36-24-112.06,0,0,48.83-110.18,123.44-122.19a25,25,0,0,0,6.47-.8,106,106,0,0,0,17.42-2.8c50-4.81,86.12,21,115.62,61.69.63,33.69,4.41,67.56-5.47,102,27.14-22.17,51.75-45.64,71.49-73.85,23.48-25.45,44.78-41,67.5-71.53C407.43,31.16,448.23-6,474.54,18.36Z" transform="translate(-5.84 -10.06)"/></svg>