<?xml version="1.0" encoding="utf-8"?>
<!-- Generator: Adobe Illustrator 25.4.1, SVG Export Plug-In . SVG Version: 6.00 Build 0)  -->
<svg version="1.1" id="Layer_1" xmlns:serif="http://www.serif.com/"
	 xmlns="http://www.w3.org/2000/svg" xmlns:xlink="http://www.w3.org/1999/xlink" x="0px" y="0px" viewBox="0 0 1024 1024"
	 style="enable-background:new 0 0 1024 1024;" xml:space="preserve">
<style type="text/css">
	.st0{fill:none;}
	.st1{clip-path:url(#SVGID_00000053546987235930899630000004839389163995398302_);}
	.st2{fill-rule:evenodd;clip-rule:evenodd;fill:url(#SVGID_00000038372253424144692620000008874755715121592725_);}
	.st3{fill:#FFFFFF;}
	.st4{fill:#E6E6E6;}
</style>
<g id="Artboard2db" transform="matrix(1,0,0,1,465,1394.26)">
	<rect x="-463.8" y="-1393.6" class="st0" width="1021.6" height="1021.6"/>
	<g>
		<defs>
			<rect id="SVGID_1_" x="-463.8" y="-1393.6" width="1021.6" height="1021.6"/>
		</defs>
		<clipPath id="SVGID_00000146501400406407423250000018414294656881163958_">
			<use xlink:href="#SVGID_1_"  style="overflow:visible;"/>
		</clipPath>
		<g style="clip-path:url(#SVGID_00000146501400406407423250000018414294656881163958_);">
			<g transform="matrix(1,0,0,0.950226,0,-442.805)">
				
					<linearGradient id="SVGID_00000161606404271483042320000003045339356666295691_" gradientUnits="userSpaceOnUse" x1="-465" y1="76.8712" x2="-464" y2="76.8712" gradientTransform="matrix(6.255302e-14 1075.0785 970.7202 -6.255298e-14 -74573.3984 498910.8438)">
					<stop  offset="0" style="stop-color:#E94057"/>
					<stop  offset="0.16" style="stop-color:#DD3063"/>
					<stop  offset="0.32" style="stop-color:#CD236E"/>
					<stop  offset="0.48" style="stop-color:#BA1D78"/>
					<stop  offset="0.64" style="stop-color:#A41E81"/>
					<stop  offset="0.8" style="stop-color:#8A2387"/>
					<stop  offset="1" style="stop-color:#8A2387"/>
				</linearGradient>
				<path style="fill-rule:evenodd;clip-rule:evenodd;fill:url(#SVGID_00000161606404271483042320000003045339356666295691_);" d="
					M557.8-731.9c0-148.3-114.4-268.8-255.4-268.8h-510.8c-141,0-255.4,120.4-255.4,268.8v537.5c0,148.3,114.4,268.8,255.4,268.8
					h510.8c141,0,255.4-120.4,255.4-268.8V-731.9z"/>
			</g>
			<g transform="matrix(4.1145e-17,-0.671949,0.671949,4.1145e-17,290.243,304.052)">
				<path class="st3" d="M1581.6-398.1l-3.8,4.7v238.8l3.8,11.2L1893-582L1581.6-398.1z"/>
			</g>
			<g transform="matrix(4.1145e-17,-0.671949,0.671949,4.1145e-17,290.243,304.052)">
				<path class="st4" d="M1581.6-143.4v-254.7L1270.3-582L1581.6-143.4z"/>
			</g>
			<g transform="matrix(4.1145e-17,0.671949,-0.671949,4.1145e-17,729.356,30)">
				<path class="st4" d="M-1543.3,980.8l-3.8,4.7v238.8l3.8,11.2l311.4-438.6L-1543.3,980.8z"/>
			</g>
			<g transform="matrix(4.1145e-17,0.671949,-0.671949,4.1145e-17,729.356,30)">
				<path class="st3" d="M-1543.3,1235.5V980.8l-311.2-183.9L-1543.3,1235.5z"/>
			</g>
		</g>
	</g>
</g>
</svg>
