<svg id="Layer_1" data-name="Layer 1" xmlns="http://www.w3.org/2000/svg" xmlns:xlink="http://www.w3.org/1999/xlink" viewBox="0 0 492.12 505.47"><defs><style>.cls-1{fill:url(#linear-gradient);}.cls-2{fill-opacity:0.2;fill:url(#linear-gradient-2);}.cls-3{fill:#56be8a;}</style><linearGradient id="linear-gradient" x1="236.85" y1="224.44" x2="418.34" y2="148.32" gradientTransform="matrix(1, 0, 0, -1, 0, 514)" gradientUnits="userSpaceOnUse"><stop offset="0" stop-color="#259362"/><stop offset="1" stop-color="#56be8a"/></linearGradient><linearGradient id="linear-gradient-2" x1="245.55" y1="412.37" x2="328.32" y2="256.57" gradientTransform="matrix(1, 0, 0, -1, 0, 514)" gradientUnits="userSpaceOnUse"><stop offset="0" stop-color="#010101"/><stop offset="1" stop-color="#010101" stop-opacity="0"/></linearGradient></defs><path class="cls-1" d="M297.22,500.22c-12.92,16.26-39.1,7.35-39.41-13.42l-4.55-303.7H457.47c37,0,57.61,42.73,34.61,71.69Z" transform="translate(-9.63 -3.14)"/><path class="cls-2" d="M297.22,500.22c-12.92,16.26-39.1,7.35-39.41-13.42l-4.55-303.7H457.47c37,0,57.61,42.73,34.61,71.69Z" transform="translate(-9.63 -3.14)"/><path class="cls-3" d="M214.17,11.54C227.08-4.72,253.26,4.19,253.57,25l2,303.7H53.92c-37,0-57.62-42.72-34.62-71.69Z" transform="translate(-9.63 -3.14)"/></svg>