<svg id="Layer_2" data-name="Layer 2" xmlns="http://www.w3.org/2000/svg" viewBox="0 0 254.44 507.77"><path d="M116.76,293.45c0-27.52-.25-53.19.36-78.85.07-2.72,4.76-6.41,8.07-7.79q83.2-34.71,166.62-68.9c9.53-3.94,19.27-7.5,28.42-12.2,3.81-2,8.84-6.53,8.72-9.75-.12-3.39-5.12-8-9-9.65C277,88.15,233.88,70.48,190.82,52.66c-20-8.29-40.07-16.65-60.12-24.92-16-6.59-16.23-7-12.39-25.63,11,4.56,21.7,9,32.46,13.48q98.13,40.54,196.29,81c16.1,6.61,24.06,18,23.61,35.47-.29,11.07-.12,22.15-.05,33.23.1,16.15-7.7,26.91-22.37,33-26.24,10.88-52.48,21.73-81,33.54,14.73,6.22,27.35,11.64,40,16.9q19.73,8.18,39.55,16.08c16,6.36,24.05,17.79,23.87,35.3-.28,27.87,0,55.74-.12,83.61,0,14.73-6.89,25.43-20.39,31Q236.39,462.1,122.44,509c-1.27.52-2.76.47-5.21.86-.2-3.76-.55-7.17-.55-10.57,0-36.8.18-73.61-.19-110.41-.07-7.48,2.05-11.41,9.21-14.33C188.94,348.83,252,322.7,315.14,296.67a85.12,85.12,0,0,0,8.78-3.89c7.92-4.36,8.36-12.85.18-16.39q-39.17-17-78.93-32.47c-3.3-1.29-8.35.49-12.12,2-36.58,14.85-73.06,29.95-109.57,45C121.92,291.56,120.32,292.11,116.76,293.45Z" transform="translate(-116.26 -2.11)"/></svg>